<svg t="1730173751294" class="icon" viewBox="0 0 1024 1024" version="1.1" xmlns="http://www.w3.org/2000/svg" p-id="11604" id="mx_n_1730173751294" width="48" height="48"><path d="M768.212848 357.231077c80.912821 0 146.470933-64.659649 146.470933-144.403854 0-0.505513-0.173962-1.064238-0.173962-1.569752 0-0.611937 0.173962-1.108241 0.173962-1.614777 0-79.744205-65.557088-144.350642-146.470933-144.350642-80.862679 0-146.420791 64.60746-146.420791 144.350642 0 0.672312 0.106424 1.169639 0.106424 1.840928 0 0.506537-0.106424 0.951675-0.106424 1.343601 0 11.333116 1.832741 22.169929 4.466732 32.66598L358.547561 419.717224c-26.470885-25.737174-62.766532-41.660842-102.796224-41.660842-80.931241 0-146.489352 64.61667-146.489352 144.360875 0 0.557702 0.156566 1.064238 0.156566 1.62194 0 0.558725-0.156566 1.065262-0.156566 1.554402 0 79.744205 65.558112 144.412041 146.489352 144.412041 43.152822 0 81.576947-18.810415 108.379383-48.073902L622.07142 808.834522c-0.121773 0.785899-0.228197 1.50119-0.228197 2.338255 0 0.506537 0.157589 1.064238 0.157589 1.570775-0.052189 0.557702-0.157589 1.116427-0.157589 1.62194 0 79.727833 65.559135 144.343479 146.420791 144.343479 80.912821 0 146.470933-64.615647 146.470933-144.343479 0-0.557702-0.173962-1.116427-0.173962-1.62194 0-0.506537 0.173962-1.11745 0.173962-1.570775 0-79.745229-65.557088-144.413064-146.470933-144.413064-52.384068 0-98.015338 27.361161-123.857912 68.140936L398.245701 556.635593c2.303462-10.033517 3.908006-20.258393 3.908006-30.989805 0-0.48914-0.105401-0.942465-0.105401-1.39579 0-0.610914 0.105401-1.169639 0.105401-1.779529 0-13.06148-2.443655-25.51921-5.862521-37.525662l265.86109-173.055404C688.798147 339.641467 726.333018 357.231077 768.212848 357.231077L768.212848 357.231077zM768.212848 357.231077" fill="#01875f" p-id="11605"></path></svg>