<svg t="1730202314359" class="icon" viewBox="0 0 1024 1024" version="1.1" xmlns="http://www.w3.org/2000/svg" p-id="4730" width="48" height="48"><path d="M74.481699 15.148138A60.274759 60.274759 0 0 1 146.091079 9.922207c196.64331 109.709241 391.944828 221.819586 587.528827 333.294345-54.519172 55.825655-110.521379 110.274207-164.969931 166.170482l-2.471724 2.259863C405.198389 343.357793 237.33301 181.671724 74.481699 15.148138z m0 0" fill="#0FF07E" p-id="4731"></path><path d="M53.436734 136.651034c0.211862-40.712828-5.932138-87.322483 21.186207-121.538206C237.474251 181.636414 405.374941 343.322483 566.319492 511.611586q-247.172414 247.84331-494.344827 496.004414a166.700138 166.700138 0 0 1-18.855724-84.744828c0.494345-262.073379 0-524.111448 0.282482-786.184827z m0 0" fill="#10CFFF" p-id="4732"></path><path d="M733.619906 343.181241c66.171586 36.758069 131.636966 74.71669 197.278897 112.463449a64.54731 64.54731 0 0 1 38.417655 65.818482c-6.779586 28.248276-34.109793 43.184552-57.344 56.496552-59.745103 31.77931-117.230345 68.007724-176.763586 100.352-55.366621-56.496552-112.993103-110.909793-166.558897-168.92469 54.448552-55.860966 110.450759-110.344828 164.969931-166.170482z m0 0" fill="#FFCA0A" p-id="4733"></path><path d="M566.178251 511.611586l2.471724-2.259862c53.671724 58.014897 111.156966 112.463448 166.523586 168.92469q-289.544828 166.700138-580.466758 330.752a71.468138 71.468138 0 0 1-82.696828-1.412414q246.642759-248.478897 494.168276-496.004414z m0 0" fill="#FA3E4D" p-id="4734"></path></svg>