<svg t="1730422374052" class="icon" viewBox="0 0 4800 1024" version="1.1" xmlns="http://www.w3.org/2000/svg" p-id="6296" width="48" height="48"><path d="M512 1024A512 512 0 1 0 512 0a512 512 0 0 0 0 1024z" fill="#02AFD9" p-id="6297"></path><path d="M216.128 626.88a1482.688 1482.688 0 0 1 0-227.84c5.76-85.632 56.448-145.92 155.712-153.728 52.544-3.904 107.072-5.888 159.616-3.904h21.44c40.896 1.92 126.528 17.536 130.432 95.36h-328.96c-11.712 0-21.44 7.808-21.44 19.52 0 11.648 9.728 21.376 21.376 21.376h328.96c7.872 0 105.152 3.904 126.592 120.704 1.92 42.88 0 85.696-3.84 128.512-5.888 83.712-70.144 147.968-155.776 153.792-93.44 3.84-184.96 3.84-278.4 0-97.28-5.824-149.888-70.08-155.712-153.792z m492.48-44.8v29.184c0 9.728-7.744 17.536-19.456 17.536a17.472 17.472 0 0 1-17.536-17.536v-29.184c-9.728-5.824-15.552-13.632-15.552-25.28 0-15.616 15.552-29.248 33.088-29.248s33.088 13.632 33.088 29.248a30.4 30.4 0 0 1-13.632 25.28z" fill="#FEFEFE" p-id="6298"></path><path d="M3857.152 368.832s-24.896 28.8-126.464 45.312c-97.472 16.512-124.416 41.216-132.736 59.776-8.32 18.56-8.32 90.624 107.84 74.112 116.096-14.4 151.36-80.32 151.36-80.32V368.832z m136.832-94.72v383.104H3867.52v-61.824c-41.472 37.12-99.52 72.128-180.416 76.224-252.928 6.208-350.336-271.872-43.52-354.24 72.576-20.608 143.104-14.464 180.416-32.96 24.832-14.464 31.104-37.12 14.464-57.664-62.144-82.432-211.456-49.472-252.928 63.808l-126.464-30.848c33.152-125.696 134.784-181.312 257.088-193.664 130.624-12.352 277.824 57.664 277.824 208zM1599.36 206.08a166.272 166.272 0 0 1 165.888 166.848c0 90.624-74.688 164.736-165.888 164.736s-165.888-74.112-165.888-164.736A166.272 166.272 0 0 1 1599.36 206.08z m327.616-121.6H1765.12v61.824a288.832 288.832 0 0 0-190.72-70.016C1412.608 76.352 1280 210.24 1280 375.04c0 166.848 132.672 300.736 294.4 300.736a288.832 288.832 0 0 0 190.72-70.08v55.68c0 88.512-64.256 158.592-153.408 158.592-74.624 0-134.72-14.464-184.512-72.128l-103.68 92.672C1408.64 931.2 1493.568 960 1613.824 960c174.144 0 313.088-117.44 313.088-315.136V84.608z m2817.6-10.24h-169.984L4404.48 442.88l-194.88-368.64h-172.096l281.984 525.248-149.248 304.832h172.096l402.176-830.08zM3071.36 206.08a166.272 166.272 0 0 0-165.888 166.848c0 90.624 74.624 164.736 165.888 164.736 93.312 0 167.936-74.112 167.936-164.736A166.72 166.72 0 0 0 3071.36 206.08z m-325.504-121.6h159.616v61.824a297.088 297.088 0 0 1 190.72-70.016c161.792 0 294.4 133.888 294.4 298.688 0 166.848-132.608 300.736-294.4 300.736a297.088 297.088 0 0 1-190.72-70.08v298.688h-159.616V84.544zM2318.72 202.048c-99.52 0-180.352 78.272-180.352 173.056 0 96.768 80.832 175.04 180.352 175.04 101.632 0 182.464-78.272 182.464-175.04 0-94.72-80.832-173.056-182.4-173.056z m0-137.984c178.304 0 323.456 140.032 323.456 311.04 0 172.992-145.152 313.088-323.456 313.088-178.304 0-323.392-140.096-323.392-313.088 0-171.008 145.088-311.04 323.392-311.04z" fill="#1D1819" p-id="6299"></path></svg>